<svg width="1682" height="899" viewBox="0 0 1682 899" fill="none" xmlns="http://www.w3.org/2000/svg">
<rect x="1" y="1" width="1680" height="877" fill="white"/>
<path d="M90.312 63.7113C53.8867 82.1206 11.7019 32.1086 1 1.11963H1681V96.848C1637.41 118.326 1536.12 144.528 1479.61 77.5182C1408.98 -6.24409 1356.65 67.0142 1345.35 77.5182C1289.9 129.064 1256.04 76.2638 1240.86 59.1089C1174.9 -15.4487 1139.29 68.3136 1049.39 107.894C1030.72 116.118 985.767 116.178 915.135 63.7113C878.943 36.8276 840.802 27.761 767.449 63.7113C724.252 84.882 690.395 112.496 634.356 50.8247C578.318 -10.8464 554.462 31.4085 532.202 40.6996C492.508 57.268 466.823 112.496 421.876 63.7113C376.928 14.9266 346.573 5.72195 308.047 36.0973C269.52 66.4727 231.307 66.7911 201.222 40.6996C166.198 10.3243 135.844 40.6996 90.312 63.7113Z" fill="#D8EEFB" stroke="#D8EEFB"/>
<path d="M1592.64 834.933C1629.09 816.621 1670.29 864.515 1681 895.34L0.999878 897.825V801.972C44.6118 780.608 145.971 754.544 202.51 821.199C273.185 904.519 325.543 831.648 336.85 821.199C392.339 769.926 426.216 822.447 441.402 839.511C507.404 913.674 543.033 830.355 632.983 790.985C651.673 782.804 696.648 782.744 767.323 834.933C803.536 861.675 841.7 870.693 915.097 834.933C958.319 813.875 992.196 786.407 1048.27 847.752C1104.34 909.096 1128.21 867.065 1150.48 857.823C1190.2 841.342 1215.9 786.407 1260.88 834.933C1305.85 883.46 1336.22 892.616 1374.77 862.401C1413.32 832.187 1451.56 831.87 1481.66 857.823C1516.71 888.038 1547.08 857.823 1592.64 834.933Z" fill="#D8EEFB" stroke="#D8EEFB"/>
</svg>
