<svg width="1680" height="895" viewBox="0 0 1680 895" fill="none" xmlns="http://www.w3.org/2000/svg">
<rect width="1680" height="895" fill="#D8EEFB"/>
<mask id="mask0" mask-type="alpha" maskUnits="userSpaceOnUse" x="0" y="0" width="1680" height="895">
<rect width="1680" height="895" fill="#D8EEFB"/>
</mask>
<g mask="url(#mask0)">
<path fill-rule="evenodd" clip-rule="evenodd" d="M228.688 191.022C228.688 188.26 226.449 186.022 223.688 186.022H125C122.239 186.022 120 188.26 120 191.022V289.072C120 291.833 122.239 294.072 125 294.072H223.688C226.449 294.072 228.688 291.833 228.688 289.072V191.022ZM208.745 210.848C208.745 208.086 206.507 205.848 203.745 205.848H143.946C141.184 205.848 138.946 208.086 138.946 210.848V270.238C138.946 272.999 141.184 275.238 143.946 275.238H203.745C206.507 275.238 208.745 272.999 208.745 270.238V210.848Z" fill="#FFFF00"/>
<path fill-rule="evenodd" clip-rule="evenodd" d="M1108.4 669.712C1106.44 667.765 1103.27 667.765 1101.31 669.712L1031.55 739.064C1029.59 741.011 1029.59 744.168 1031.55 746.115L1101.31 815.467C1103.27 817.414 1106.44 817.414 1108.4 815.467L1178.16 746.115C1180.12 744.168 1180.12 741.011 1178.16 739.064L1108.4 669.712ZM1108.4 697.75C1106.44 695.803 1103.27 695.803 1101.31 697.75L1059.04 739.766C1057.09 741.712 1057.09 744.869 1059.04 746.816L1101.31 788.832C1103.27 790.779 1106.44 790.779 1108.4 788.832L1150.66 746.816C1152.62 744.869 1152.62 741.712 1150.66 739.766L1108.4 697.75Z" fill="#6CF133"/>
<path fill-rule="evenodd" clip-rule="evenodd" d="M1387.34 260.271C1417.36 260.271 1441.69 236.084 1441.69 206.246C1441.69 176.409 1417.36 152.221 1387.34 152.221C1357.33 152.221 1333 176.409 1333 206.246C1333 236.084 1357.33 260.271 1387.34 260.271ZM1387.34 241.437C1406.89 241.437 1422.74 225.682 1422.74 206.247C1422.74 186.811 1406.89 171.056 1387.34 171.056C1367.79 171.056 1351.95 186.811 1351.95 206.247C1351.95 225.682 1367.79 241.437 1387.34 241.437Z" fill="#6CF133"/>
<path fill-rule="evenodd" clip-rule="evenodd" d="M87.4953 799.257C85.4151 795.675 86.641 791.1 90.2335 789.038C101.531 782.553 112.342 782.898 122.15 786.57C131.434 790.045 139.963 796.566 147.342 802.288C147.656 802.531 147.968 802.774 148.279 803.014C155.695 808.769 161.992 813.655 168.213 816.364C174.157 818.951 179.249 819.215 184.785 816.038C190.358 812.839 192.833 808.179 193.711 801.584C194.658 794.481 193.622 786.073 192.414 776.285L192.41 776.258C191.269 767.011 189.964 756.439 191.432 746.884C192.98 736.815 197.68 727.368 208.539 721.135C219.385 714.91 230.003 715.547 239.626 719.133C248.611 722.481 257.202 728.585 264.791 733.976L265.232 734.289C273.356 740.06 280.426 745.02 287.365 747.606C293.839 750.018 299.597 750.141 305.681 746.648C311.634 743.231 313.768 738.764 314.273 732.726C314.784 726.634 313.58 719.67 312.13 711.277C311.959 710.284 311.784 709.272 311.608 708.239C310.048 699.079 308.454 688.388 310.487 678.253C312.636 667.536 318.714 657.899 331.162 650.754C334.755 648.692 339.353 649.924 341.433 653.506C343.514 657.088 342.288 661.663 338.695 663.725C329.987 668.724 326.534 674.715 325.229 681.219C323.808 688.304 324.837 696.425 326.429 705.773C326.599 706.772 326.777 707.791 326.958 708.826C328.361 716.85 329.937 725.863 329.254 734.007C328.42 743.976 324.191 753.319 313.214 759.62C302.368 765.845 291.75 765.207 282.127 761.621C273.142 758.273 264.55 752.17 256.962 746.778L256.521 746.466C248.397 740.695 241.327 735.734 234.388 733.149C227.914 730.736 222.156 730.614 216.072 734.106C210 737.591 207.313 742.542 206.292 749.185C205.194 756.334 206.135 764.777 207.334 774.496C207.378 774.848 207.422 775.203 207.466 775.558C208.571 784.485 209.818 794.553 208.614 803.59C207.294 813.495 202.936 822.915 192.318 829.009C181.662 835.126 171.372 834.059 162.219 830.074C154.187 826.577 146.473 820.579 139.607 815.239C139.108 814.851 138.613 814.467 138.123 814.087C130.446 808.133 123.676 803.118 116.891 800.578C110.631 798.234 104.603 798.085 97.7666 802.009C94.1742 804.071 89.5755 802.839 87.4953 799.257Z" fill="#6CF133"/>
<path fill-rule="evenodd" clip-rule="evenodd" d="M712.681 128.045C715.601 125.108 720.35 125.094 723.288 128.014L799.07 203.352C802.008 206.272 802.022 211.021 799.101 213.958C796.181 216.896 791.432 216.91 788.495 213.989L712.712 138.652C709.775 135.732 709.761 130.983 712.681 128.045Z" fill="#074074"/>
<path fill-rule="evenodd" clip-rule="evenodd" d="M799.101 128.045C796.181 125.108 791.432 125.094 788.495 128.014L712.712 203.352C709.775 206.272 709.761 211.021 712.681 213.958C715.601 216.896 720.35 216.91 723.288 213.989L799.07 138.652C802.007 135.732 802.021 130.983 799.101 128.045Z" fill="#074074"/>
<path fill-rule="evenodd" clip-rule="evenodd" d="M888.188 561.345C889.927 557.594 888.284 553.139 884.519 551.393L637.148 436.72C633.383 434.974 628.922 436.6 627.183 440.351C625.444 444.102 627.087 448.558 630.852 450.303L878.222 564.977C881.988 566.722 886.449 565.096 888.188 561.345Z" fill="#FFFF00"/>
<mask id="mask1" mask-type="alpha" maskUnits="userSpaceOnUse" x="-58" y="14" width="210" height="208">
<path d="M151.597 14.0374H-57.0002V221.41H151.597V14.0374Z" fill="#C4C4C4"/>
</mask>
<g mask="url(#mask1)">
<path fill-rule="evenodd" clip-rule="evenodd" d="M108.425 150.601L38.7259 80.8124L31.6086 87.8373L101.308 157.626L108.425 150.601Z" fill="white"/>
<path fill-rule="evenodd" clip-rule="evenodd" d="M73.8263 151.1L4.12673 81.3109L-2.99049 88.3358L66.7091 158.125L73.8263 151.1Z" fill="white"/>
<path fill-rule="evenodd" clip-rule="evenodd" d="M39.227 151.1L-30.9741 80.8123L-38.0911 87.8374L32.11 158.125L39.227 151.1Z" fill="white"/>
<path fill-rule="evenodd" clip-rule="evenodd" d="M4.12594 151.099L-65.2051 81.7275L-72.3199 88.7549L-2.9888 158.126L4.12594 151.099Z" fill="white"/>
<path fill-rule="evenodd" clip-rule="evenodd" d="M177.526 150.212L108.418 81.3035L101.316 88.3432L170.424 157.251L177.526 150.212Z" fill="white"/>
<path fill-rule="evenodd" clip-rule="evenodd" d="M143.012 150.588L73.7088 81.7155L66.6181 88.7669L135.921 157.64L143.012 150.588Z" fill="white"/>
<path fill-rule="evenodd" clip-rule="evenodd" d="M38.7067 80.7934L-30.4731 12.2683L-37.5521 19.3313L31.6277 87.8564L38.7067 80.7934Z" fill="white"/>
<path fill-rule="evenodd" clip-rule="evenodd" d="M4.11763 81.3012L-65.1948 12.2777L-72.2927 19.3219L-2.98029 88.3454L4.11763 81.3012Z" fill="white"/>
<path fill-rule="evenodd" clip-rule="evenodd" d="M108.418 81.3033L39.1871 12.2798L32.0851 19.3198L101.316 88.3434L108.418 81.3033Z" fill="white"/>
<path fill-rule="evenodd" clip-rule="evenodd" d="M73.8232 81.8064L4.27432 12.2844L-2.83701 19.3152L66.7119 88.8372L73.8232 81.8064Z" fill="white"/>
<path fill-rule="evenodd" clip-rule="evenodd" d="M211.449 151.166L142.519 82.3038L135.409 89.3368L204.34 158.199L211.449 151.166Z" fill="white"/>
<path fill-rule="evenodd" clip-rule="evenodd" d="M174.937 83.4977L106.061 14.9891L98.9707 22.0412L167.847 90.5498L174.937 83.4977Z" fill="white"/>
<path fill-rule="evenodd" clip-rule="evenodd" d="M209.345 83.4977L140.468 14.9891L133.378 22.0412L202.255 90.5498L209.345 83.4977Z" fill="white"/>
<path fill-rule="evenodd" clip-rule="evenodd" d="M142.512 82.297L73.1036 13.2277L66.0082 20.2745L135.417 89.3437L142.512 82.297Z" fill="white"/>
<path fill-rule="evenodd" clip-rule="evenodd" d="M177.588 219.655L108.42 150.596L101.313 157.631L170.481 226.69L177.588 219.655Z" fill="white"/>
<path fill-rule="evenodd" clip-rule="evenodd" d="M142.848 219.646L73.3104 150.587L66.2221 157.641L135.759 226.7L142.848 219.646Z" fill="white"/>
<path fill-rule="evenodd" clip-rule="evenodd" d="M108.119 219.649L39.2162 151.089L32.1212 158.136L101.024 226.696L108.119 219.649Z" fill="white"/>
<path fill-rule="evenodd" clip-rule="evenodd" d="M73.3787 219.64L3.60502 150.581L-3.47118 157.647L66.3025 226.706L73.3787 219.64Z" fill="white"/>
<path fill-rule="evenodd" clip-rule="evenodd" d="M38.6505 219.643L-30.4892 151.083L-37.5721 158.142L31.5676 226.702L38.6505 219.643Z" fill="white"/>
<path fill-rule="evenodd" clip-rule="evenodd" d="M212.317 219.652L143.016 150.593L135.916 157.635L205.216 226.694L212.317 219.652Z" fill="white"/>
<path fill-rule="evenodd" clip-rule="evenodd" d="M-70.0006 157.192L-1.10601 225.682L5.98584 218.632L-62.9087 150.142L-70.0006 157.192Z" fill="white"/>
</g>
<mask id="mask2" mask-type="alpha" maskUnits="userSpaceOnUse" x="1550" y="567" width="209" height="209">
<path d="M1758.6 567.768H1550V775.141H1758.6V567.768Z" fill="#C4C4C4"/>
</mask>
<g mask="url(#mask2)">
<path fill-rule="evenodd" clip-rule="evenodd" d="M1715.43 704.332L1645.73 634.543L1638.61 641.568L1708.31 711.357L1715.43 704.332Z" fill="white"/>
<path fill-rule="evenodd" clip-rule="evenodd" d="M1680.83 704.83L1611.13 635.041L1604.01 642.066L1673.71 711.855L1680.83 704.83Z" fill="white"/>
<path fill-rule="evenodd" clip-rule="evenodd" d="M1646.23 704.83L1576.03 634.543L1568.91 641.568L1639.11 711.855L1646.23 704.83Z" fill="white"/>
<path fill-rule="evenodd" clip-rule="evenodd" d="M1611.13 704.829L1541.8 635.458L1534.68 642.485L1604.01 711.856L1611.13 704.829Z" fill="white"/>
<path fill-rule="evenodd" clip-rule="evenodd" d="M1576.52 704.826L1507.06 635.454L1499.95 642.489L1569.42 711.86L1576.52 704.826Z" fill="white"/>
<path fill-rule="evenodd" clip-rule="evenodd" d="M1750.01 704.318L1680.71 635.446L1673.62 642.497L1742.92 711.37L1750.01 704.318Z" fill="white"/>
<path fill-rule="evenodd" clip-rule="evenodd" d="M1645.72 634.514L1576.53 565.999L1569.45 573.061L1638.64 641.577L1645.72 634.514Z" fill="white"/>
<path fill-rule="evenodd" clip-rule="evenodd" d="M1611.13 635.022L1541.81 566.008L1534.71 573.051L1604.03 642.066L1611.13 635.022Z" fill="white"/>
<path fill-rule="evenodd" clip-rule="evenodd" d="M1576.52 635.019L1507.07 566.005L1499.98 573.055L1569.43 642.069L1576.52 635.019Z" fill="white"/>
<path fill-rule="evenodd" clip-rule="evenodd" d="M1715.43 635.024L1646.19 566.01L1639.09 573.049L1708.33 642.064L1715.43 635.024Z" fill="white"/>
<path fill-rule="evenodd" clip-rule="evenodd" d="M1680.82 635.537L1611.27 566.015L1604.16 573.046L1673.71 642.568L1680.82 635.537Z" fill="white"/>
<path fill-rule="evenodd" clip-rule="evenodd" d="M1749.51 636.027L1680.1 566.958L1673.01 574.005L1742.42 643.074L1749.51 636.027Z" fill="white"/>
<path fill-rule="evenodd" clip-rule="evenodd" d="M1749.85 773.376L1680.31 704.317L1673.22 711.371L1742.76 780.43L1749.85 773.376Z" fill="white"/>
<path fill-rule="evenodd" clip-rule="evenodd" d="M1715.12 773.38L1646.22 704.819L1639.12 711.866L1708.03 780.427L1715.12 773.38Z" fill="white"/>
<path fill-rule="evenodd" clip-rule="evenodd" d="M1680.38 773.37L1610.61 704.311L1603.53 711.377L1673.3 780.436L1680.38 773.37Z" fill="white"/>
<path fill-rule="evenodd" clip-rule="evenodd" d="M1645.65 773.374L1576.51 704.813L1569.43 711.872L1638.57 780.433L1645.65 773.374Z" fill="white"/>
<path fill-rule="evenodd" clip-rule="evenodd" d="M1502 707.94L1570.89 776.43L1577.99 769.38L1509.09 700.89L1502 707.94Z" fill="white"/>
<path fill-rule="evenodd" clip-rule="evenodd" d="M1537 710.922L1605.89 779.413L1612.99 772.362L1544.09 703.872L1537 710.922Z" fill="white"/>
</g>
<mask id="mask3" mask-type="alpha" maskUnits="userSpaceOnUse" x="1120" y="-65" width="322" height="326">
<path d="M1120 98.0414C1120 187.81 1192.08 260.582 1281 260.582C1369.92 260.582 1442 187.81 1442 98.0414C1442 8.27287 1369.92 -64.4989 1281 -64.4989C1192.08 -64.4989 1120 8.27287 1120 98.0414Z" fill="#C4C4C4"/>
</mask>
<g mask="url(#mask3)">
</g>
<mask id="mask4" mask-type="alpha" maskUnits="userSpaceOnUse" x="1120" y="-65" width="322" height="326">
<path d="M1120 98.0414C1120 187.81 1192.08 260.582 1281 260.582C1369.92 260.582 1442 187.81 1442 98.0414C1442 8.27287 1369.92 -64.4989 1281 -64.4989C1192.08 -64.4989 1120 8.27287 1120 98.0414Z" fill="#C4C4C4"/>
</mask>
<g mask="url(#mask4)">
<path fill-rule="evenodd" clip-rule="evenodd" d="M1360.55 153.608L1228.35 38.6406L1213.21 51.7246L1345.42 166.692L1360.55 153.608Z" fill="white"/>
<path fill-rule="evenodd" clip-rule="evenodd" d="M1295.11 153.613L1161.6 37.3245L1146.45 50.3981L1279.96 166.687L1295.11 153.613Z" fill="white"/>
<path fill-rule="evenodd" clip-rule="evenodd" d="M1229.62 153.577L1096.31 38.7355L1081.25 51.881L1214.56 166.723L1229.62 153.577Z" fill="white"/>
<path fill-rule="evenodd" clip-rule="evenodd" d="M1162.57 152.64L1030.85 38.0565L1015.72 51.1384L1147.43 165.721L1162.57 152.64Z" fill="white"/>
<path fill-rule="evenodd" clip-rule="evenodd" d="M1493.52 152.834L1361.85 38.6318L1346.74 51.7334L1478.41 165.935L1493.52 152.834Z" fill="white"/>
<path fill-rule="evenodd" clip-rule="evenodd" d="M1428.62 153.613L1295.11 37.3244L1279.96 50.3981L1413.48 166.687L1428.62 153.613Z" fill="white"/>
<path fill-rule="evenodd" clip-rule="evenodd" d="M1228.37 38.6628L1096.41 -76.8724L1081.23 -63.8328L1213.19 51.7024L1228.37 38.6628Z" fill="white"/>
<path fill-rule="evenodd" clip-rule="evenodd" d="M1161.58 37.3145L1030.06 -76.8993L1014.94 -63.8059L1146.46 50.4079L1161.58 37.3145Z" fill="white"/>
<path fill-rule="evenodd" clip-rule="evenodd" d="M1361.87 38.6499L1229.39 -76.8853L1214.24 -63.8199L1346.72 51.7154L1361.87 38.6499Z" fill="white"/>
<path fill-rule="evenodd" clip-rule="evenodd" d="M1296.39 38.6197L1162.68 -76.9155L1147.6 -63.7897L1281.3 51.7456L1296.39 38.6197Z" fill="white"/>
<path fill-rule="evenodd" clip-rule="evenodd" d="M1558.29 154.41L1425.98 39.9451L1410.88 53.063L1543.19 167.528L1558.29 154.41Z" fill="white"/>
<path fill-rule="evenodd" clip-rule="evenodd" d="M1489.42 41.0031L1357.87 -73.0733L1342.76 -59.9706L1474.31 54.1059L1489.42 41.0031Z" fill="white"/>
<path fill-rule="evenodd" clip-rule="evenodd" d="M1426.02 39.9797L1294.17 -75.2928L1279 -62.2438L1410.84 53.0286L1426.02 39.9797Z" fill="white"/>
<path fill-rule="evenodd" clip-rule="evenodd" d="M1493.62 268.479L1360.52 153.584L1345.45 166.716L1478.55 281.612L1493.62 268.479Z" fill="white"/>
<path fill-rule="evenodd" clip-rule="evenodd" d="M1427.33 268.501L1295.1 153.606L1279.97 166.695L1412.2 281.59L1427.33 268.501Z" fill="white"/>
<path fill-rule="evenodd" clip-rule="evenodd" d="M1361.03 268.522L1229.68 153.627L1214.5 166.673L1345.86 281.568L1361.03 268.522Z" fill="white"/>
<path fill-rule="evenodd" clip-rule="evenodd" d="M1295.5 267.779L1162.55 152.625L1147.45 165.735L1280.39 280.889L1295.5 267.779Z" fill="white"/>
<path fill-rule="evenodd" clip-rule="evenodd" d="M1225.77 270.74L1094.22 156.664L1079.11 169.767L1210.66 283.843L1225.77 270.74Z" fill="white"/>
<path fill-rule="evenodd" clip-rule="evenodd" d="M1559.99 268.523L1428.64 153.627L1413.46 166.673L1544.82 281.568L1559.99 268.523Z" fill="white"/>
</g>
<path fill-rule="evenodd" clip-rule="evenodd" d="M737.267 689.463C741.122 689.463 743.527 685.285 741.591 681.952L704.988 618.925C703.06 615.606 698.267 615.606 696.34 618.925L659.737 681.952C657.801 685.285 660.206 689.463 664.06 689.463H737.267ZM718.035 678.424C721.89 678.424 724.295 674.246 722.359 670.913L704.988 641.002C703.06 637.684 698.268 637.684 696.34 641.002L678.969 670.913C677.033 674.246 679.438 678.424 683.293 678.424H718.035Z" fill="#074074"/>
<mask id="mask5" mask-type="alpha" maskUnits="userSpaceOnUse" x="562" y="607" width="162" height="141">
<path d="M638.424 610.008C640.352 606.689 645.145 606.689 647.072 610.008L722.787 740.38C724.723 743.713 722.318 747.891 718.463 747.891H567.033C563.178 747.891 560.774 743.713 562.709 740.38L638.424 610.008Z" fill="black"/>
</mask>
<g mask="url(#mask5)">
<path fill-rule="evenodd" clip-rule="evenodd" d="M652.278 702.125L591.415 649.197L584.606 655.085L645.469 708.013L652.278 702.125Z" fill="white"/>
<path fill-rule="evenodd" clip-rule="evenodd" d="M622.15 702.128L560.685 648.592L553.87 654.475L615.335 708.011L622.15 702.128Z" fill="white"/>
<path fill-rule="evenodd" clip-rule="evenodd" d="M592.002 702.111L530.632 649.241L523.855 655.157L585.225 708.027L592.002 702.111Z" fill="white"/>
<path fill-rule="evenodd" clip-rule="evenodd" d="M713.496 701.769L652.876 649.193L646.076 655.089L706.696 707.664L713.496 701.769Z" fill="white"/>
<path fill-rule="evenodd" clip-rule="evenodd" d="M683.616 702.128L622.151 648.592L615.336 654.475L676.801 708.011L683.616 702.128Z" fill="white"/>
<path fill-rule="evenodd" clip-rule="evenodd" d="M591.426 649.208L530.675 596.019L523.843 601.886L584.594 655.075L591.426 649.208Z" fill="white"/>
<path fill-rule="evenodd" clip-rule="evenodd" d="M652.885 649.202L591.895 596.013L585.076 601.892L646.066 655.081L652.885 649.202Z" fill="white"/>
<path fill-rule="evenodd" clip-rule="evenodd" d="M622.739 649.188L561.184 595.999L554.397 601.906L615.951 655.095L622.739 649.188Z" fill="white"/>
<path fill-rule="evenodd" clip-rule="evenodd" d="M743.31 702.494L682.399 649.798L675.607 655.701L736.518 708.398L743.31 702.494Z" fill="white"/>
<path fill-rule="evenodd" clip-rule="evenodd" d="M711.692 650.209L651.122 597.7L644.321 603.595L704.892 656.104L711.692 650.209Z" fill="white"/>
<path fill-rule="evenodd" clip-rule="evenodd" d="M682.416 649.814L621.717 596.746L614.89 602.618L675.589 655.686L682.416 649.814Z" fill="white"/>
<path fill-rule="evenodd" clip-rule="evenodd" d="M713.541 755.009L652.265 702.114L645.481 708.024L706.757 760.918L713.541 755.009Z" fill="white"/>
<path fill-rule="evenodd" clip-rule="evenodd" d="M683.02 755.018L622.146 702.124L615.34 708.014L676.213 760.909L683.02 755.018Z" fill="white"/>
<path fill-rule="evenodd" clip-rule="evenodd" d="M652.499 755.028L592.027 702.134L585.198 708.004L645.67 760.899L652.499 755.028Z" fill="white"/>
<path fill-rule="evenodd" clip-rule="evenodd" d="M622.329 754.686L561.125 701.673L554.329 707.572L615.533 760.586L622.329 754.686Z" fill="white"/>
<path fill-rule="evenodd" clip-rule="evenodd" d="M590.308 755.981L529.744 703.464L522.945 709.36L583.508 761.878L590.308 755.981Z" fill="white"/>
<path fill-rule="evenodd" clip-rule="evenodd" d="M744.095 755.028L683.623 702.134L676.794 708.004L737.266 760.899L744.095 755.028Z" fill="white"/>
</g>
<path d="M1173.05 678.302C1176.18 681.409 1176.18 686.446 1173.06 689.551C1169.93 692.657 1164.87 692.656 1161.74 689.55C1158.62 686.443 1158.62 681.406 1161.74 678.3C1164.86 675.195 1169.93 675.195 1173.05 678.302Z" fill="white"/>
<path d="M1202.05 649.478C1205.17 652.585 1205.18 657.621 1202.05 660.727C1198.93 663.833 1193.86 663.832 1190.74 660.725C1187.61 657.618 1187.61 652.582 1190.73 649.476C1193.86 646.37 1198.92 646.371 1202.05 649.478Z" fill="white"/>
<path d="M1144.06 707.123C1147.19 710.23 1147.19 715.267 1144.07 718.372C1140.94 721.478 1135.88 721.478 1132.75 718.371C1129.62 715.264 1129.62 710.227 1132.75 707.121C1135.87 704.016 1140.94 704.016 1144.06 707.123Z" fill="white"/>
<path d="M1115.07 735.949C1118.19 739.056 1118.19 744.092 1115.07 747.198C1111.95 750.304 1106.88 750.303 1103.75 747.196C1100.63 744.089 1100.63 739.053 1103.75 735.947C1106.88 732.841 1111.94 732.842 1115.07 735.949Z" fill="white"/>
<path d="M1086.08 764.77C1089.2 767.877 1089.2 772.913 1086.08 776.019C1082.95 779.125 1077.89 779.124 1074.76 776.017C1071.64 772.911 1071.64 767.874 1074.76 764.768C1077.89 761.662 1082.95 761.663 1086.08 764.77Z" fill="white"/>
<path d="M1202.91 707.386C1206.04 710.493 1206.04 715.53 1202.91 718.635C1199.79 721.741 1194.72 721.74 1191.6 718.634C1188.47 715.527 1188.47 710.49 1191.6 707.384C1194.72 704.279 1199.79 704.279 1202.91 707.386Z" fill="white"/>
<path d="M1231.91 678.561C1235.03 681.668 1235.03 686.705 1231.91 689.811C1228.79 692.916 1223.72 692.916 1220.59 689.809C1217.47 686.702 1217.47 681.665 1220.59 678.56C1223.72 675.454 1228.78 675.455 1231.91 678.561Z" fill="white"/>
<path d="M1173.92 736.207C1177.05 739.314 1177.05 744.351 1173.92 747.456C1170.8 750.562 1165.73 750.562 1162.61 747.455C1159.48 744.348 1159.48 739.311 1162.61 736.205C1165.73 733.1 1170.8 733.1 1173.92 736.207Z" fill="white"/>
<path d="M1144.93 765.033C1148.05 768.14 1148.05 773.176 1144.93 776.282C1141.8 779.388 1136.74 779.387 1133.61 776.28C1130.49 773.173 1130.49 768.137 1133.61 765.031C1136.73 761.925 1141.8 761.926 1144.93 765.033Z" fill="white"/>
<path d="M1115.93 793.854C1119.06 796.961 1119.06 801.998 1115.94 805.104C1112.81 808.209 1107.75 808.209 1104.62 805.102C1101.49 801.995 1101.49 796.958 1104.62 793.853C1107.74 790.747 1112.81 790.748 1115.93 793.854Z" fill="white"/>
<path d="M1229.95 734.333C1233.08 737.44 1233.08 742.476 1229.95 745.582C1226.83 748.688 1221.76 748.687 1218.64 745.58C1215.51 742.473 1215.51 737.437 1218.63 734.331C1221.76 731.225 1226.82 731.226 1229.95 734.333Z" fill="white"/>
<path d="M1258.94 705.508C1262.07 708.615 1262.07 713.652 1258.95 716.758C1255.82 719.863 1250.76 719.863 1247.63 716.756C1244.51 713.649 1244.5 708.612 1247.63 705.506C1250.75 702.401 1255.82 702.401 1258.94 705.508Z" fill="white"/>
<path d="M1200.96 763.154C1204.08 766.261 1204.08 771.297 1200.96 774.403C1197.84 777.509 1192.77 777.508 1189.65 774.401C1186.52 771.295 1186.52 766.258 1189.64 763.152C1192.77 760.046 1197.83 760.047 1200.96 763.154Z" fill="white"/>
<path d="M1171.96 791.98C1175.09 795.087 1175.09 800.123 1171.96 803.229C1168.84 806.335 1163.77 806.334 1160.65 803.227C1157.52 800.12 1157.52 795.084 1160.65 791.978C1163.77 788.872 1168.84 788.873 1171.96 791.98Z" fill="white"/>
<path d="M1142.97 820.801C1146.1 823.908 1146.1 828.945 1142.97 832.05C1139.85 835.156 1134.78 835.155 1131.66 832.049C1128.53 828.942 1128.53 823.905 1131.66 820.799C1134.78 817.694 1139.85 817.694 1142.97 820.801Z" fill="white"/>
<path d="M1259.16 764.113C1262.29 767.22 1262.29 772.256 1259.17 775.362C1256.04 778.468 1250.98 778.467 1247.85 775.36C1244.73 772.253 1244.72 767.217 1247.85 764.111C1250.97 761.005 1256.04 761.006 1259.16 764.113Z" fill="white"/>
<path d="M1288.16 735.288C1291.29 738.395 1291.29 743.432 1288.16 746.538C1285.04 749.644 1279.97 749.643 1276.85 746.536C1273.72 743.429 1273.72 738.392 1276.84 735.287C1279.97 732.181 1285.03 732.182 1288.16 735.288Z" fill="white"/>
<path d="M1230.17 792.934C1233.3 796.041 1233.3 801.078 1230.18 804.183C1227.05 807.289 1221.99 807.288 1218.86 804.182C1215.74 801.075 1215.73 796.038 1218.86 792.932C1221.98 789.827 1227.05 789.827 1230.17 792.934Z" fill="white"/>
<path d="M1201.18 821.76C1204.3 824.867 1204.3 829.903 1201.18 833.009C1198.06 836.115 1192.99 836.114 1189.86 833.007C1186.74 829.9 1186.74 824.864 1189.86 821.758C1192.99 818.652 1198.05 818.653 1201.18 821.76Z" fill="white"/>
<path d="M1172.19 850.581C1175.31 853.688 1175.31 858.725 1172.19 861.831C1169.06 864.936 1164 864.936 1160.87 861.829C1157.75 858.722 1157.75 853.685 1160.87 850.58C1163.99 847.474 1169.06 847.475 1172.19 850.581Z" fill="white"/>
<path d="M1286.9 790.421C1290.03 793.528 1290.03 798.564 1286.9 801.67C1283.78 804.776 1278.71 804.775 1275.59 801.668C1272.46 798.561 1272.46 793.525 1275.59 790.419C1278.71 787.313 1283.78 787.314 1286.9 790.421Z" fill="white"/>
<path d="M1315.9 761.596C1319.02 764.703 1319.02 769.74 1315.9 772.845C1312.77 775.951 1307.71 775.95 1304.58 772.844C1301.46 769.737 1301.46 764.7 1304.58 761.594C1307.71 758.489 1312.77 758.489 1315.9 761.596Z" fill="white"/>
<path d="M1257.91 819.242C1261.04 822.349 1261.04 827.385 1257.91 830.491C1254.79 833.597 1249.72 833.596 1246.6 830.489C1243.47 827.383 1243.47 822.346 1246.6 819.24C1249.72 816.134 1254.79 816.135 1257.91 819.242Z" fill="white"/>
<path d="M1228.92 848.068C1232.04 851.175 1232.04 856.211 1228.92 859.317C1225.79 862.423 1220.73 862.422 1217.6 859.315C1214.48 856.208 1214.48 851.172 1217.6 848.066C1220.72 844.96 1225.79 844.961 1228.92 848.068Z" fill="white"/>
<path d="M1199.92 876.889C1203.05 879.996 1203.05 885.033 1199.93 888.139C1196.8 891.244 1191.74 891.244 1188.61 888.137C1185.48 885.03 1185.48 879.993 1188.61 876.888C1191.73 873.782 1196.8 873.783 1199.92 876.889Z" fill="white"/>
<path fill-rule="evenodd" clip-rule="evenodd" d="M1608.69 731.829C1608.69 729.067 1606.45 726.829 1603.69 726.829H1505C1502.24 726.829 1500 729.067 1500 731.829V829.879C1500 832.64 1502.24 834.879 1505 834.879H1603.69C1606.45 834.879 1608.69 832.64 1608.69 829.879V731.829ZM1588.75 751.655C1588.75 748.893 1586.51 746.655 1583.75 746.655H1523.95C1521.18 746.655 1518.95 748.893 1518.95 751.655V811.044C1518.95 813.806 1521.18 816.044 1523.95 816.044H1583.75C1586.51 816.044 1588.75 813.806 1588.75 811.044V751.655Z" fill="#FFFF00"/>
</g>
<path d="M741 0.119629H1680V282.453C1680 282.453 1505.1 27.9251 1170.34 97.2251C835.578 166.525 741 0.119629 741 0.119629Z" fill="white"/>
</svg>
