<svg width="564" height="310" viewBox="0 0 564 310" fill="none" xmlns="http://www.w3.org/2000/svg">
<path d="M2.5 30.0857C2.5 14.8979 14.8122 2.58575 30 2.58575H504C519.188 2.58575 531.5 14.8979 531.5 30.0858V248.326C531.5 263.514 519.188 275.826 504 275.826H30C14.8122 275.826 2.5 263.514 2.5 248.326V30.0857Z" fill="white" stroke="#56AF2C" stroke-width="5"/>
<path d="M32.5 61.0013C32.5 45.8135 44.8122 33.5013 60 33.5013H534C549.188 33.5013 561.5 45.8135 561.5 61.0013V279.242C561.5 294.429 549.188 306.742 534 306.742H60C44.8122 306.742 32.5 294.429 32.5 279.242V61.0013Z" fill="white" stroke="#9CDAFF" stroke-width="5"/>
<path d="M99.0944 185.887C100.734 185.887 102.114 185.647 103.234 185.167C104.394 184.687 105.374 184.147 106.174 183.547C106.974 182.947 107.674 182.407 108.274 181.927C108.914 181.447 109.554 181.207 110.194 181.207C110.994 181.207 111.394 181.807 111.394 183.007C111.394 183.647 111.314 184.427 111.154 185.347C110.994 186.227 110.774 187.227 110.494 188.347C110.334 189.027 109.934 189.767 109.294 190.567C108.694 191.367 107.854 192.127 106.774 192.847C105.694 193.527 104.354 194.107 102.754 194.587C101.194 195.027 99.3944 195.247 97.3544 195.247C95.3144 195.247 93.2744 194.947 91.2344 194.347C89.1944 193.747 87.3744 192.727 85.7744 191.287C84.1744 189.847 82.8744 187.907 81.8744 185.467C80.8744 183.027 80.3744 179.967 80.3744 176.287C80.3744 174.967 80.4544 173.447 80.6144 171.727C80.8144 169.967 81.1744 168.167 81.6944 166.327C82.2144 164.487 82.9344 162.687 83.8544 160.927C84.8144 159.127 86.0344 157.527 87.5144 156.127C88.9944 154.727 90.7944 153.607 92.9144 152.767C95.0744 151.887 97.6344 151.447 100.594 151.447C102.954 151.447 104.994 151.727 106.714 152.287C108.474 152.847 109.914 153.627 111.034 154.627C112.194 155.587 113.034 156.727 113.554 158.047C114.114 159.367 114.394 160.767 114.394 162.247C114.394 164.807 113.634 166.687 112.114 167.887C110.634 169.047 108.514 169.627 105.754 169.627C104.874 169.627 104.314 169.567 104.074 169.447C103.874 169.287 103.774 168.987 103.774 168.547C103.734 167.187 103.694 166.007 103.654 165.007C103.614 164.007 103.474 163.187 103.234 162.547C102.994 161.867 102.614 161.387 102.094 161.107C101.614 160.787 100.934 160.627 100.054 160.627C98.7744 160.627 97.6744 160.907 96.7544 161.467C95.8744 161.987 95.1144 162.687 94.4744 163.567C93.8744 164.407 93.3744 165.367 92.9744 166.447C92.6144 167.527 92.3144 168.627 92.0744 169.747C91.8744 170.867 91.7344 171.947 91.6544 172.987C91.6144 174.027 91.5944 174.927 91.5944 175.687C91.5944 179.367 92.1944 181.987 93.3944 183.547C94.6344 185.107 96.5344 185.887 99.0944 185.887ZM139.273 151.387C142.193 151.387 144.693 151.807 146.773 152.647C148.853 153.447 150.553 154.647 151.873 156.247C153.193 157.807 154.153 159.727 154.753 162.007C155.353 164.247 155.653 166.807 155.653 169.687C155.653 171.287 155.533 173.027 155.293 174.907C155.093 176.787 154.693 178.687 154.093 180.607C153.533 182.487 152.753 184.307 151.753 186.067C150.753 187.827 149.453 189.387 147.853 190.747C146.293 192.107 144.413 193.207 142.213 194.047C140.013 194.847 137.413 195.247 134.413 195.247C131.093 195.247 128.333 194.747 126.133 193.747C123.973 192.747 122.233 191.407 120.913 189.727C119.633 188.007 118.713 185.987 118.153 183.667C117.633 181.347 117.373 178.867 117.373 176.227C117.373 173.107 117.733 170.067 118.453 167.107C119.173 164.107 120.373 161.447 122.053 159.127C123.773 156.807 126.033 154.947 128.833 153.547C131.633 152.107 135.113 151.387 139.273 151.387ZM138.013 160.687C136.613 160.687 135.393 160.947 134.353 161.467C133.353 161.947 132.493 162.607 131.773 163.447C131.093 164.287 130.533 165.227 130.093 166.267C129.693 167.307 129.373 168.387 129.133 169.507C128.893 170.587 128.733 171.647 128.653 172.687C128.573 173.687 128.533 174.587 128.533 175.387C128.533 179.027 129.133 181.687 130.333 183.367C131.573 185.047 133.313 185.887 135.553 185.887C137.393 185.887 138.893 185.307 140.053 184.147C141.213 182.947 142.113 181.527 142.753 179.887C143.433 178.207 143.893 176.487 144.133 174.727C144.373 172.927 144.493 171.407 144.493 170.167C144.493 167.247 143.993 164.947 142.993 163.267C141.993 161.547 140.333 160.687 138.013 160.687ZM198.929 162.667C198.609 163.627 198.189 164.887 197.669 166.447C197.189 167.967 196.649 169.647 196.049 171.487C195.449 173.327 194.829 175.287 194.189 177.367C193.549 179.407 192.889 181.407 192.209 183.367C191.569 185.327 190.929 187.207 190.289 189.007C189.649 190.767 189.069 192.307 188.549 193.627C188.389 193.947 188.049 194.207 187.529 194.407C187.049 194.567 186.269 194.647 185.189 194.647C184.509 194.647 183.809 194.607 183.089 194.527C182.369 194.447 181.689 194.287 181.049 194.047C180.449 193.807 179.909 193.487 179.429 193.087C178.989 192.687 178.649 192.187 178.409 191.587C177.809 189.547 177.229 187.287 176.669 184.807C176.149 182.287 175.629 179.727 175.109 177.127C174.589 174.527 174.069 171.987 173.549 169.507C173.069 166.987 172.569 164.707 172.049 162.667C172.049 163.227 172.029 164.187 171.989 165.547C171.949 166.907 171.909 168.487 171.869 170.287C171.829 172.087 171.769 174.027 171.689 176.107C171.649 178.187 171.609 180.227 171.569 182.227C171.529 184.187 171.489 186.027 171.449 187.747C171.409 189.427 171.389 190.807 171.389 191.887C171.389 193.087 171.309 193.847 171.149 194.167C171.029 194.487 170.789 194.647 170.429 194.647H167.129C164.849 194.647 163.229 194.207 162.269 193.327C161.349 192.407 160.889 191.067 160.889 189.307C160.889 188.827 160.909 188.027 160.949 186.907C161.029 185.747 161.129 184.387 161.249 182.827C161.369 181.267 161.489 179.567 161.609 177.727C161.769 175.847 161.929 173.947 162.089 172.027C162.289 169.427 162.449 167.267 162.569 165.547C162.729 163.787 162.849 162.327 162.929 161.167C163.009 160.007 163.069 159.067 163.109 158.347C163.189 157.627 163.229 156.987 163.229 156.427C163.269 155.867 163.289 155.347 163.289 154.867C163.329 154.347 163.349 153.707 163.349 152.947C163.349 152.627 163.469 152.407 163.709 152.287C163.949 152.127 164.169 152.047 164.369 152.047H172.769C174.329 152.047 175.609 152.307 176.609 152.827C177.609 153.307 178.429 154.067 179.069 155.107C179.709 156.147 180.229 157.507 180.629 159.187C181.029 160.827 181.389 162.787 181.709 165.067C182.069 167.347 182.449 169.987 182.849 172.987C183.289 175.947 183.849 179.287 184.529 183.007C185.169 180.527 185.709 178.467 186.149 176.827C186.589 175.187 186.949 173.827 187.229 172.747C187.549 171.627 187.809 170.707 188.009 169.987C188.209 169.267 188.389 168.607 188.549 168.007C188.709 167.367 188.889 166.687 189.089 165.967C189.289 165.247 189.529 164.347 189.809 163.267C190.089 162.187 190.429 160.847 190.829 159.247C191.269 157.607 191.809 155.547 192.449 153.067C192.529 152.827 192.669 152.607 192.869 152.407C193.069 152.167 193.429 152.047 193.949 152.047H203.309C204.589 152.047 205.609 152.187 206.369 152.467C207.169 152.707 207.789 153.067 208.229 153.547C208.669 154.027 208.969 154.627 209.129 155.347C209.289 156.027 209.369 156.827 209.369 157.747C209.369 158.667 209.309 160.167 209.189 162.247C209.109 164.287 208.969 166.607 208.769 169.207C208.609 171.767 208.429 174.427 208.229 177.187C208.069 179.947 207.889 182.507 207.689 184.867C207.529 187.227 207.389 189.227 207.269 190.867C207.149 192.507 207.069 193.467 207.029 193.747C206.989 194.067 206.909 194.307 206.789 194.467C206.669 194.587 206.429 194.647 206.069 194.647H202.769C200.489 194.647 198.869 194.207 197.909 193.327C196.989 192.407 196.529 191.227 196.529 189.787C196.529 189.347 196.569 188.547 196.649 187.387C196.769 186.227 196.909 184.867 197.069 183.307C197.229 181.747 197.409 180.047 197.609 178.207C197.809 176.327 197.989 174.467 198.149 172.627C198.309 170.787 198.449 169.007 198.569 167.287C198.729 165.527 198.849 163.987 198.929 162.667ZM221.821 194.647C219.581 194.647 217.981 194.207 217.021 193.327C216.061 192.447 215.581 191.187 215.581 189.547C215.581 188.747 215.641 187.387 215.761 185.467C215.881 183.507 216.041 181.287 216.241 178.807C216.441 176.327 216.641 173.707 216.841 170.947C217.041 168.187 217.241 165.587 217.441 163.147C217.641 160.707 217.801 158.567 217.921 156.727C218.041 154.887 218.101 153.627 218.101 152.947C218.101 152.347 218.421 152.047 219.061 152.047H222.361C224.801 152.047 226.441 152.567 227.281 153.607C228.121 154.647 228.541 156.187 228.541 158.227C228.541 158.427 228.501 159.067 228.421 160.147C228.381 161.227 228.301 162.587 228.181 164.227C228.061 165.867 227.921 167.707 227.761 169.747C227.641 171.747 227.501 173.807 227.341 175.927C227.221 178.047 227.081 180.127 226.921 182.167C226.801 184.167 226.681 185.987 226.561 187.627C226.441 189.267 226.341 190.647 226.261 191.767C226.181 192.847 226.121 193.507 226.081 193.747C226.041 194.067 225.961 194.307 225.841 194.467C225.721 194.587 225.481 194.647 225.121 194.647H221.821ZM261.528 194.647C259.888 194.647 258.668 194.407 257.868 193.927C257.068 193.447 256.488 192.847 256.128 192.127C254.048 187.847 252.088 183.747 250.248 179.827C248.448 175.907 246.608 171.947 244.728 167.947C244.768 172.267 244.828 176.567 244.908 180.847C244.988 185.127 245.068 189.427 245.148 193.747C245.148 194.347 244.828 194.647 244.188 194.647H240.888C238.608 194.647 236.988 194.207 236.028 193.327C235.108 192.407 234.648 191.067 234.648 189.307C234.648 188.827 234.668 188.027 234.708 186.907C234.788 185.747 234.888 184.387 235.008 182.827C235.128 181.267 235.248 179.567 235.368 177.727C235.528 175.847 235.688 173.947 235.848 172.027C236.088 168.987 236.288 166.467 236.448 164.467C236.608 162.467 236.728 160.787 236.808 159.427C236.928 158.027 237.008 156.847 237.048 155.887C237.088 154.887 237.128 153.907 237.168 152.947C237.168 152.347 237.488 152.047 238.128 152.047H242.928C244.248 152.047 245.328 152.207 246.168 152.527C247.008 152.807 247.688 153.207 248.208 153.727C248.768 154.247 249.208 154.847 249.528 155.527C249.848 156.167 250.148 156.847 250.428 157.567C251.388 160.047 252.228 162.187 252.948 163.987C253.708 165.787 254.368 167.367 254.928 168.727C255.488 170.087 255.968 171.267 256.368 172.267C256.808 173.267 257.208 174.187 257.568 175.027C257.928 175.867 258.288 176.687 258.648 177.487C259.008 178.247 259.388 179.087 259.788 180.007C259.788 177.647 259.768 175.227 259.728 172.747C259.728 170.227 259.708 167.787 259.668 165.427C259.668 163.027 259.648 160.727 259.608 158.527C259.608 156.327 259.608 154.347 259.608 152.587C259.608 152.227 259.948 152.047 260.628 152.047H263.928C265.248 152.047 266.288 152.187 267.048 152.467C267.848 152.707 268.468 153.087 268.908 153.607C269.348 154.087 269.628 154.687 269.748 155.407C269.908 156.127 269.988 156.947 269.988 157.867C269.988 158.867 269.928 160.407 269.808 162.487C269.688 164.527 269.548 166.827 269.388 169.387C269.228 171.947 269.048 174.607 268.848 177.367C268.648 180.087 268.448 182.607 268.248 184.927C268.088 187.247 267.928 189.227 267.768 190.867C267.648 192.467 267.568 193.407 267.528 193.687C267.528 194.007 267.408 194.247 267.168 194.407C266.968 194.567 266.728 194.647 266.448 194.647H261.528ZM302.797 194.647C300.717 194.647 299.217 194.227 298.297 193.387C297.417 192.507 296.937 191.427 296.857 190.147C296.417 191.507 295.477 192.707 294.037 193.747C292.637 194.747 290.597 195.247 287.917 195.247C286.357 195.247 284.837 194.947 283.357 194.347C281.877 193.707 280.557 192.667 279.397 191.227C278.237 189.787 277.297 187.867 276.577 185.467C275.897 183.067 275.557 180.087 275.557 176.527C275.557 175.167 275.637 173.607 275.797 171.847C275.957 170.047 276.277 168.227 276.757 166.387C277.277 164.507 277.997 162.687 278.917 160.927C279.877 159.127 281.117 157.527 282.637 156.127C284.197 154.727 286.097 153.607 288.337 152.767C290.577 151.887 293.257 151.447 296.377 151.447C298.417 151.447 300.237 151.667 301.837 152.107C303.477 152.547 304.857 153.167 305.977 153.967C307.137 154.767 308.017 155.747 308.617 156.907C309.257 158.067 309.577 159.367 309.577 160.807C309.577 163.127 308.817 164.887 307.297 166.087C305.777 167.247 303.637 167.827 300.877 167.827C299.997 167.827 299.457 167.767 299.257 167.647C299.097 167.487 298.997 167.187 298.957 166.747C298.877 166.027 298.817 165.307 298.777 164.587C298.777 163.867 298.677 163.207 298.477 162.607C298.317 162.007 298.017 161.527 297.577 161.167C297.137 160.807 296.437 160.627 295.477 160.627C293.517 160.627 291.957 161.187 290.797 162.307C289.637 163.427 288.757 164.787 288.157 166.387C287.557 167.987 287.177 169.647 287.017 171.367C286.857 173.047 286.777 174.467 286.777 175.627C286.777 177.547 286.897 179.167 287.137 180.487C287.377 181.767 287.717 182.827 288.157 183.667C288.637 184.467 289.197 185.047 289.837 185.407C290.477 185.727 291.217 185.887 292.057 185.887C293.577 185.887 294.857 185.567 295.897 184.927C296.937 184.287 297.557 183.127 297.757 181.447L298.117 178.087C298.237 176.927 298.397 175.987 298.597 175.267C298.797 174.507 299.277 174.127 300.037 174.127H303.337C304.337 174.127 305.137 174.247 305.737 174.487C306.377 174.687 306.857 175.047 307.177 175.567C307.537 176.047 307.777 176.687 307.897 177.487C308.017 178.287 308.077 179.267 308.077 180.427C308.077 181.227 308.037 182.287 307.957 183.607C307.917 184.927 307.837 186.267 307.717 187.627C307.637 188.987 307.537 190.247 307.417 191.407C307.297 192.527 307.197 193.307 307.117 193.747C307.037 194.107 306.937 194.347 306.817 194.467C306.697 194.587 306.457 194.647 306.097 194.647H302.797ZM344.326 151.447C348.086 151.447 350.866 152.267 352.666 153.907C354.506 155.547 355.426 157.687 355.426 160.327C355.426 162.567 354.806 164.287 353.566 165.487C352.326 166.647 350.546 167.227 348.226 167.227C347.506 167.227 347.046 167.167 346.846 167.047C346.646 166.887 346.546 166.587 346.546 166.147C346.546 165.747 346.506 165.227 346.426 164.587C346.386 163.947 346.246 163.327 346.006 162.727C345.766 162.127 345.386 161.627 344.866 161.227C344.346 160.787 343.626 160.567 342.706 160.567C341.426 160.567 340.286 160.967 339.286 161.767C338.286 162.527 337.786 163.527 337.786 164.767C337.786 165.847 338.186 166.727 338.986 167.407C339.826 168.087 340.866 168.727 342.106 169.327C343.346 169.887 344.686 170.467 346.126 171.067C347.606 171.667 348.966 172.467 350.206 173.467C351.446 174.427 352.466 175.647 353.266 177.127C354.106 178.567 354.526 180.407 354.526 182.647C354.526 184.407 354.226 186.067 353.626 187.627C353.066 189.147 352.206 190.487 351.046 191.647C349.926 192.767 348.486 193.647 346.726 194.287C345.006 194.927 342.986 195.247 340.666 195.247C338.666 195.247 336.806 195.027 335.086 194.587C333.406 194.147 331.926 193.607 330.646 192.967C329.406 192.287 328.426 191.567 327.706 190.807C326.986 190.007 326.626 189.287 326.626 188.647C326.626 186.007 326.766 184.107 327.046 182.947C327.366 181.787 327.926 181.207 328.726 181.207C329.286 181.207 329.866 181.447 330.466 181.927C331.106 182.407 331.826 182.947 332.626 183.547C333.426 184.147 334.346 184.687 335.386 185.167C336.466 185.647 337.706 185.887 339.106 185.887C339.666 185.887 340.206 185.847 340.726 185.767C341.286 185.647 341.766 185.467 342.166 185.227C342.606 184.987 342.946 184.667 343.186 184.267C343.466 183.867 343.606 183.387 343.606 182.827C343.606 181.827 343.226 181.027 342.466 180.427C341.706 179.827 340.746 179.287 339.586 178.807C338.426 178.287 337.166 177.767 335.806 177.247C334.486 176.687 333.246 175.947 332.086 175.027C330.926 174.067 329.966 172.847 329.206 171.367C328.446 169.887 328.066 167.987 328.066 165.667C328.066 163.067 328.546 160.867 329.506 159.067C330.506 157.267 331.766 155.807 333.286 154.687C334.846 153.527 336.586 152.707 338.506 152.227C340.466 151.707 342.406 151.447 344.326 151.447ZM381.727 151.387C384.647 151.387 387.147 151.807 389.227 152.647C391.307 153.447 393.007 154.647 394.327 156.247C395.647 157.807 396.607 159.727 397.207 162.007C397.807 164.247 398.107 166.807 398.107 169.687C398.107 171.287 397.987 173.027 397.747 174.907C397.547 176.787 397.147 178.687 396.547 180.607C395.987 182.487 395.207 184.307 394.207 186.067C393.207 187.827 391.907 189.387 390.307 190.747C388.747 192.107 386.867 193.207 384.667 194.047C382.467 194.847 379.867 195.247 376.867 195.247C373.547 195.247 370.787 194.747 368.587 193.747C366.427 192.747 364.687 191.407 363.367 189.727C362.087 188.007 361.167 185.987 360.607 183.667C360.087 181.347 359.827 178.867 359.827 176.227C359.827 173.107 360.187 170.067 360.907 167.107C361.627 164.107 362.827 161.447 364.507 159.127C366.227 156.807 368.487 154.947 371.287 153.547C374.087 152.107 377.567 151.387 381.727 151.387ZM380.467 160.687C379.067 160.687 377.847 160.947 376.807 161.467C375.807 161.947 374.947 162.607 374.227 163.447C373.547 164.287 372.987 165.227 372.547 166.267C372.147 167.307 371.827 168.387 371.587 169.507C371.347 170.587 371.187 171.647 371.107 172.687C371.027 173.687 370.987 174.587 370.987 175.387C370.987 179.027 371.587 181.687 372.787 183.367C374.027 185.047 375.767 185.887 378.007 185.887C379.847 185.887 381.347 185.307 382.507 184.147C383.667 182.947 384.567 181.527 385.207 179.887C385.887 178.207 386.347 176.487 386.587 174.727C386.827 172.927 386.947 171.407 386.947 170.167C386.947 167.247 386.447 164.947 385.447 163.267C384.447 161.547 382.787 160.687 380.467 160.687ZM424.584 151.387C427.504 151.387 430.004 151.807 432.084 152.647C434.164 153.447 435.864 154.647 437.184 156.247C438.504 157.807 439.464 159.727 440.064 162.007C440.664 164.247 440.964 166.807 440.964 169.687C440.964 171.287 440.844 173.027 440.604 174.907C440.404 176.787 440.004 178.687 439.404 180.607C438.844 182.487 438.064 184.307 437.064 186.067C436.064 187.827 434.764 189.387 433.164 190.747C431.604 192.107 429.724 193.207 427.524 194.047C425.324 194.847 422.724 195.247 419.724 195.247C416.404 195.247 413.644 194.747 411.444 193.747C409.284 192.747 407.544 191.407 406.224 189.727C404.944 188.007 404.024 185.987 403.464 183.667C402.944 181.347 402.684 178.867 402.684 176.227C402.684 173.107 403.044 170.067 403.764 167.107C404.484 164.107 405.684 161.447 407.364 159.127C409.084 156.807 411.344 154.947 414.144 153.547C416.944 152.107 420.424 151.387 424.584 151.387ZM423.324 160.687C421.924 160.687 420.704 160.947 419.664 161.467C418.664 161.947 417.804 162.607 417.084 163.447C416.404 164.287 415.844 165.227 415.404 166.267C415.004 167.307 414.684 168.387 414.444 169.507C414.204 170.587 414.044 171.647 413.964 172.687C413.884 173.687 413.844 174.587 413.844 175.387C413.844 179.027 414.444 181.687 415.644 183.367C416.884 185.047 418.624 185.887 420.864 185.887C422.704 185.887 424.204 185.307 425.364 184.147C426.524 182.947 427.424 181.527 428.064 179.887C428.744 178.207 429.204 176.487 429.444 174.727C429.684 172.927 429.804 171.407 429.804 170.167C429.804 167.247 429.304 164.947 428.304 163.267C427.304 161.547 425.644 160.687 423.324 160.687ZM473.08 194.647C471.44 194.647 470.22 194.407 469.42 193.927C468.62 193.447 468.04 192.847 467.68 192.127C465.6 187.847 463.64 183.747 461.8 179.827C460 175.907 458.16 171.947 456.28 167.947C456.32 172.267 456.38 176.567 456.46 180.847C456.54 185.127 456.62 189.427 456.7 193.747C456.7 194.347 456.38 194.647 455.74 194.647H452.44C450.16 194.647 448.54 194.207 447.58 193.327C446.66 192.407 446.2 191.067 446.2 189.307C446.2 188.827 446.22 188.027 446.26 186.907C446.34 185.747 446.44 184.387 446.56 182.827C446.68 181.267 446.8 179.567 446.92 177.727C447.08 175.847 447.24 173.947 447.4 172.027C447.64 168.987 447.84 166.467 448 164.467C448.16 162.467 448.28 160.787 448.36 159.427C448.48 158.027 448.56 156.847 448.6 155.887C448.64 154.887 448.68 153.907 448.72 152.947C448.72 152.347 449.04 152.047 449.68 152.047H454.48C455.8 152.047 456.88 152.207 457.72 152.527C458.56 152.807 459.24 153.207 459.76 153.727C460.32 154.247 460.76 154.847 461.08 155.527C461.4 156.167 461.7 156.847 461.98 157.567C462.94 160.047 463.78 162.187 464.5 163.987C465.26 165.787 465.92 167.367 466.48 168.727C467.04 170.087 467.52 171.267 467.92 172.267C468.36 173.267 468.76 174.187 469.12 175.027C469.48 175.867 469.84 176.687 470.2 177.487C470.56 178.247 470.94 179.087 471.34 180.007C471.34 177.647 471.32 175.227 471.28 172.747C471.28 170.227 471.26 167.787 471.22 165.427C471.22 163.027 471.2 160.727 471.16 158.527C471.16 156.327 471.16 154.347 471.16 152.587C471.16 152.227 471.5 152.047 472.18 152.047H475.48C476.8 152.047 477.84 152.187 478.6 152.467C479.4 152.707 480.02 153.087 480.46 153.607C480.9 154.087 481.18 154.687 481.3 155.407C481.46 156.127 481.54 156.947 481.54 157.867C481.54 158.867 481.48 160.407 481.36 162.487C481.24 164.527 481.1 166.827 480.94 169.387C480.78 171.947 480.6 174.607 480.4 177.367C480.2 180.087 480 182.607 479.8 184.927C479.64 187.247 479.48 189.227 479.32 190.867C479.2 192.467 479.12 193.407 479.08 193.687C479.08 194.007 478.96 194.247 478.72 194.407C478.52 194.567 478.28 194.647 478 194.647H473.08ZM491.848 183.967C493.528 183.967 494.728 184.387 495.448 185.227C496.168 186.027 496.528 187.167 496.528 188.647C496.528 189.247 496.448 189.947 496.288 190.747C496.128 191.507 495.828 192.227 495.388 192.907C494.988 193.547 494.408 194.107 493.648 194.587C492.888 195.027 491.888 195.247 490.648 195.247C488.808 195.247 487.568 194.787 486.928 193.867C486.288 192.907 485.968 191.727 485.968 190.327C485.968 189.527 486.068 188.747 486.268 187.987C486.468 187.227 486.788 186.547 487.228 185.947C487.668 185.347 488.268 184.867 489.028 184.507C489.788 184.147 490.728 183.967 491.848 183.967ZM507.107 183.967C508.787 183.967 509.987 184.387 510.707 185.227C511.427 186.027 511.787 187.167 511.787 188.647C511.787 189.247 511.707 189.947 511.547 190.747C511.387 191.507 511.087 192.227 510.647 192.907C510.247 193.547 509.667 194.107 508.907 194.587C508.147 195.027 507.147 195.247 505.907 195.247C504.067 195.247 502.827 194.787 502.187 193.867C501.547 192.907 501.227 191.727 501.227 190.327C501.227 189.527 501.327 188.747 501.527 187.987C501.727 187.227 502.047 186.547 502.487 185.947C502.927 185.347 503.527 184.867 504.287 184.507C505.047 184.147 505.987 183.967 507.107 183.967Z" fill="#074074"/>
</svg>
