<svg width="49" height="48" viewBox="0 0 49 48" fill="none" xmlns="http://www.w3.org/2000/svg">
<path d="M0.754883 24.1828C0.757646 35.7978 9.25359 45.6874 20.7928 47.5077V31.0063H14.7674V24.1828H20.7999V18.9885C20.5302 16.5271 21.3759 14.0741 23.1075 12.2947C24.8392 10.5153 27.2773 9.59383 29.7608 9.78033C31.5433 9.80895 33.3213 9.96677 35.0808 10.2525V16.0584H32.0788C31.0453 15.9238 30.0062 16.2631 29.2543 16.9808C28.5025 17.6984 28.1191 18.7167 28.2123 19.7487V24.1828H34.7934L33.7413 31.0086H28.2123V47.5077C40.6916 45.5471 49.4426 34.2168 48.1255 21.7251C46.8083 9.23343 35.8842 -0.0465688 23.2671 0.608033C10.65 1.26264 0.756888 11.6227 0.754883 24.1828Z" fill="#074074"/>
</svg>
