<svg width="43" height="43" viewBox="0 0 43 43" fill="none" xmlns="http://www.w3.org/2000/svg">
<path d="M21.5049 42.9722C15.6624 42.9722 14.9736 42.9413 12.6936 42.8416C10.9156 42.7831 9.16066 42.4217 7.50426 41.7728C4.63837 40.6575 2.37222 38.3905 1.25801 35.5242C0.63411 33.8618 0.2976 32.1054 0.262883 30.3301C0.129883 28.0548 0.129883 27.3091 0.129883 21.5117C0.129883 15.6526 0.160758 14.9686 0.262883 12.7005C0.29836 10.9276 0.634858 9.17361 1.25801 7.51347C2.37101 4.64335 4.64084 2.37438 7.51138 1.26247C9.17066 0.635949 10.9251 0.298561 12.6984 0.264969C14.9665 0.136719 15.7123 0.136719 21.5049 0.136719C27.3949 0.136719 28.0718 0.167594 30.3161 0.264969C32.094 0.298852 33.8531 0.636204 35.5174 1.26247C38.3871 2.37564 40.6565 4.64417 41.7708 7.51347C42.4052 9.1978 42.7435 10.9792 42.7706 12.7788C42.9036 15.0541 42.9036 15.7975 42.9036 21.5925C42.9036 27.3875 42.8704 28.1475 42.7706 30.3966C42.7353 32.1736 42.398 33.9316 41.7731 35.5955C40.6561 38.4638 38.3865 40.7316 35.5174 41.8465C33.8555 42.4692 32.1 42.8056 30.3256 42.8416C28.0575 42.9722 27.3141 42.9722 21.5049 42.9722ZM21.4241 3.89634C15.6149 3.89634 15.0116 3.92484 12.7435 4.02697C11.3897 4.0449 10.049 4.29473 8.77963 4.76559C6.90517 5.48286 5.42192 6.96007 4.69701 8.83159C4.22251 10.1148 3.97265 11.4702 3.95838 12.8382C3.83251 15.1396 3.83251 15.7428 3.83251 21.5117C3.83251 27.2117 3.85388 27.9028 3.95838 30.19C3.97964 31.5442 4.22936 32.8851 4.69701 34.1562C5.42299 36.0265 6.90598 37.5026 8.77963 38.2198C10.0482 38.6938 11.3894 38.9438 12.7435 38.9585C15.0425 39.0915 15.6481 39.0915 21.4241 39.0915C27.25 39.0915 27.8533 39.063 30.1024 38.9585C31.4571 38.942 32.7988 38.6921 34.0686 38.2198C35.9317 37.4964 37.4053 36.0237 38.1299 34.161C38.6035 32.8767 38.8533 31.5207 38.8685 30.152H38.8946C38.9968 27.8815 38.9968 27.2758 38.9968 21.4737C38.9968 15.6716 38.9706 15.0612 38.8685 12.7931C38.8472 11.4404 38.5975 10.1011 38.1299 8.83159C37.407 6.9662 35.9332 5.49066 34.0686 4.76559C32.7991 4.29235 31.4572 4.04246 30.1024 4.02697C27.8058 3.89634 27.2049 3.89634 21.4241 3.89634ZM21.5049 32.4818C17.0636 32.4847 13.058 29.8117 11.3562 25.7094C9.65436 21.6071 10.5915 16.8836 13.7306 13.7418C16.8697 10.6 21.5924 9.65874 25.6962 11.357C29.7999 13.0553 32.4764 17.0586 32.4774 21.4998C32.4709 27.5586 27.5637 32.4701 21.5049 32.4818ZM21.5049 14.3701C17.5699 14.3701 14.3799 17.5601 14.3799 21.4951C14.3799 25.4301 17.5699 28.6201 21.5049 28.6201C25.4399 28.6201 28.6299 25.4301 28.6299 21.4951C28.6207 17.5639 25.4361 14.3792 21.5049 14.3701ZM32.9049 12.6767C31.4928 12.6715 30.3515 11.5239 30.3541 10.1117C30.3568 8.69961 31.5023 7.55624 32.9144 7.55624C34.3265 7.55624 35.472 8.69959 35.4746 10.1117C35.4753 10.793 35.2046 11.4465 34.7224 11.9278C34.2402 12.4091 33.5862 12.6786 32.9049 12.6767Z" fill="#074074"/>
</svg>
