<svg width="51" height="41" viewBox="0 0 51 41" fill="none" xmlns="http://www.w3.org/2000/svg">
<path d="M44.4884 6.88409C46.6174 5.61131 48.2105 3.60716 48.97 1.24585C46.9695 2.43288 44.7806 3.26905 42.4982 3.71822C39.3337 0.370723 34.3199 -0.443906 30.2584 1.72953C26.1968 3.90296 24.0931 8.52638 25.1227 13.0163C16.928 12.6049 9.2932 8.73402 4.11816 2.36685C1.4174 7.02522 2.79754 12.9802 7.27216 15.9756C5.65409 15.9236 4.07191 15.4855 2.65753 14.6978C2.65753 14.7406 2.65753 14.7833 2.65753 14.8261C2.65847 19.6786 6.07842 23.8584 10.8347 24.8201C9.33381 25.2284 7.75952 25.2885 6.23191 24.9958C7.56951 29.1456 11.3941 31.9885 15.7533 32.0733C12.1429 34.907 7.68416 36.4437 3.09453 36.4362C2.28102 36.4374 1.46816 36.3906 0.660156 36.2961C5.32083 39.291 10.7453 40.8807 16.2853 40.8751C23.9927 40.928 31.3999 37.8895 36.8498 32.4391C42.2997 26.9888 45.3376 19.5814 45.284 11.874C45.284 11.4322 45.2737 10.9928 45.2532 10.5558C47.2492 9.11327 48.972 7.3262 50.3404 5.27859C48.4808 6.10287 46.5083 6.64404 44.4884 6.88409Z" fill="#074074"/>
</svg>
